solid OpenSCAD_Model
  facet normal -1 0 0
    outer loop
      vertex 0 0 0
      vertex 0 15.4 3
      vertex 0 15.4 0
    endloop
  endfacet
  facet normal -1 -0 0
    outer loop
      vertex 0 15.4 3
      vertex 0 0 0
      vertex 0 0 3
    endloop
  endfacet
  facet normal 0 0 1
    outer loop
      vertex 2.4 15.4 3
      vertex 2.3 10.4 3
      vertex 2.4 10.4 3
    endloop
  endfacet
  facet normal 0 0 1
    outer loop
      vertex 2.3 10.4 3
      vertex 0 15.4 3
      vertex 2.3 5 3
    endloop
  endfacet
  facet normal -0 0 1
    outer loop
      vertex 0 15.4 3
      vertex 2.3 10.4 3
      vertex 2.4 15.4 3
    endloop
  endfacet
  facet normal -0 0 1
    outer loop
      vertex 2.3 5 3
      vertex 2.4 0 3
      vertex 2.4 5 3
    endloop
  endfacet
  facet normal 0 0 1
    outer loop
      vertex 0 0 3
      vertex 2.3 5 3
      vertex 0 15.4 3
    endloop
  endfacet
  facet normal 0 0 1
    outer loop
      vertex 2.3 5 3
      vertex 0 0 3
      vertex 2.4 0 3
    endloop
  endfacet
  facet normal -0 0 1
    outer loop
      vertex 2.4 10.4 3
      vertex 10.4 5 3
      vertex 10.4 10.4 3
    endloop
  endfacet
  facet normal 0 0 1
    outer loop
      vertex 2.4 10.4 3
      vertex 2.4 5 3
      vertex 10.4 5 3
    endloop
  endfacet
  facet normal -0 0 1
    outer loop
      vertex 2.3 10.4 3
      vertex 2.4 5 3
      vertex 2.4 10.4 3
    endloop
  endfacet
  facet normal 0 0 1
    outer loop
      vertex 2.4 5 3
      vertex 2.3 10.4 3
      vertex 2.3 5 3
    endloop
  endfacet
  facet normal 1 0 0
    outer loop
      vertex 10.4 5 19
      vertex 10.4 0 19
      vertex 10.4 5 3
    endloop
  endfacet
  facet normal 1 0 0
    outer loop
      vertex 10.4 10.4 3
      vertex 10.4 15.4 19
      vertex 10.4 10.4 19
    endloop
  endfacet
  facet normal 1 0 0
    outer loop
      vertex 10.4 15.4 19
      vertex 10.4 10.4 3
      vertex 10.4 15.4 0
    endloop
  endfacet
  facet normal 1 -0 0
    outer loop
      vertex 10.4 5 3
      vertex 10.4 15.4 0
      vertex 10.4 10.4 3
    endloop
  endfacet
  facet normal 1 0 0
    outer loop
      vertex 10.4 5 3
      vertex 10.4 0 0
      vertex 10.4 15.4 0
    endloop
  endfacet
  facet normal 1 0 0
    outer loop
      vertex 10.4 0 0
      vertex 10.4 5 3
      vertex 10.4 0 19
    endloop
  endfacet
  facet normal 0 0 -1
    outer loop
      vertex 0 0 0
      vertex 10.4 15.4 0
      vertex 10.4 0 0
    endloop
  endfacet
  facet normal -0 0 -1
    outer loop
      vertex 10.4 15.4 0
      vertex 0 0 0
      vertex 0 15.4 0
    endloop
  endfacet
  facet normal 0 -1 0
    outer loop
      vertex 0 0 3
      vertex 0 0 0
      vertex 2.4 0 3
    endloop
  endfacet
  facet normal 0 -1 0
    outer loop
      vertex 2.4 0 3
      vertex 10.4 0 19
      vertex 2.4 0 19
    endloop
  endfacet
  facet normal 0 -1 0
    outer loop
      vertex 2.4 0 3
      vertex 10.4 0 0
      vertex 10.4 0 19
    endloop
  endfacet
  facet normal 0 -1 0
    outer loop
      vertex 10.4 0 0
      vertex 2.4 0 3
      vertex 0 0 0
    endloop
  endfacet
  facet normal 0 1 0
    outer loop
      vertex 10.4 15.4 19
      vertex 2.4 15.4 3
      vertex 2.4 15.4 19
    endloop
  endfacet
  facet normal 0 1 -0
    outer loop
      vertex 10.4 15.4 0
      vertex 2.4 15.4 3
      vertex 10.4 15.4 19
    endloop
  endfacet
  facet normal 0 1 0
    outer loop
      vertex 0 15.4 0
      vertex 2.4 15.4 3
      vertex 10.4 15.4 0
    endloop
  endfacet
  facet normal 0 1 0
    outer loop
      vertex 2.4 15.4 3
      vertex 0 15.4 0
      vertex 0 15.4 3
    endloop
  endfacet
  facet normal -1 0 0
    outer loop
      vertex 2.4 0 3
      vertex 2.4 5 19
      vertex 2.4 5 3
    endloop
  endfacet
  facet normal -1 -0 0
    outer loop
      vertex 2.4 5 19
      vertex 2.4 0 3
      vertex 2.4 0 19
    endloop
  endfacet
  facet normal -1 0 0
    outer loop
      vertex 2.4 10.4 3
      vertex 2.4 15.4 19
      vertex 2.4 15.4 3
    endloop
  endfacet
  facet normal -1 -0 0
    outer loop
      vertex 2.4 15.4 19
      vertex 2.4 10.4 3
      vertex 2.4 10.4 19
    endloop
  endfacet
  facet normal -0 0 1
    outer loop
      vertex 2.4 5 19
      vertex 10.4 0 19
      vertex 10.4 5 19
    endloop
  endfacet
  facet normal 0 0 1
    outer loop
      vertex 10.4 0 19
      vertex 2.4 5 19
      vertex 2.4 0 19
    endloop
  endfacet
  facet normal -0 0 1
    outer loop
      vertex 2.4 15.4 19
      vertex 10.4 10.4 19
      vertex 10.4 15.4 19
    endloop
  endfacet
  facet normal 0 0 1
    outer loop
      vertex 10.4 10.4 19
      vertex 2.4 15.4 19
      vertex 2.4 10.4 19
    endloop
  endfacet
  facet normal 0 1 -0
    outer loop
      vertex 10.4 5 3
      vertex 2.4 5 19
      vertex 10.4 5 19
    endloop
  endfacet
  facet normal 0 1 0
    outer loop
      vertex 2.4 5 19
      vertex 10.4 5 3
      vertex 2.4 5 3
    endloop
  endfacet
  facet normal 0 -1 0
    outer loop
      vertex 2.4 10.4 3
      vertex 10.4 10.4 19
      vertex 2.4 10.4 19
    endloop
  endfacet
  facet normal 0 -1 -0
    outer loop
      vertex 10.4 10.4 19
      vertex 2.4 10.4 3
      vertex 10.4 10.4 3
    endloop
  endfacet
  facet normal 1 -0 0
    outer loop
      vertex 25.8 0 3
      vertex 25.8 15.4 0
      vertex 25.8 15.4 3
    endloop
  endfacet
  facet normal 1 0 0
    outer loop
      vertex 25.8 15.4 0
      vertex 25.8 0 3
      vertex 25.8 0 0
    endloop
  endfacet
  facet normal 0 0 1
    outer loop
      vertex 25.8 15.4 3
      vertex 23.5 10.4 3
      vertex 25.8 0 3
    endloop
  endfacet
  facet normal -0 0 1
    outer loop
      vertex 23.4 15.4 3
      vertex 23.5 10.4 3
      vertex 25.8 15.4 3
    endloop
  endfacet
  facet normal 0 0 1
    outer loop
      vertex 23.5 10.4 3
      vertex 23.4 15.4 3
      vertex 23.4 10.4 3
    endloop
  endfacet
  facet normal -0 0 1
    outer loop
      vertex 23.5 5 3
      vertex 25.8 0 3
      vertex 23.5 10.4 3
    endloop
  endfacet
  facet normal 0 0 1
    outer loop
      vertex 23.4 0 3
      vertex 23.5 5 3
      vertex 23.4 5 3
    endloop
  endfacet
  facet normal 0 0 1
    outer loop
      vertex 23.5 5 3
      vertex 23.4 0 3
      vertex 25.8 0 3
    endloop
  endfacet
  facet normal -0 0 1
    outer loop
      vertex 23.4 10.4 3
      vertex 23.5 5 3
      vertex 23.5 10.4 3
    endloop
  endfacet
  facet normal 0 0 1
    outer loop
      vertex 23.4 10.4 3
      vertex 23.4 5 3
      vertex 23.5 5 3
    endloop
  endfacet
  facet normal -0 0 1
    outer loop
      vertex 15.4 10.4 3
      vertex 23.4 5 3
      vertex 23.4 10.4 3
    endloop
  endfacet
  facet normal 0 0 1
    outer loop
      vertex 23.4 5 3
      vertex 15.4 10.4 3
      vertex 15.4 5 3
    endloop
  endfacet
  facet normal -1 0 0
    outer loop
      vertex 15.4 15.4 0
      vertex 15.4 10.4 3
      vertex 15.4 15.4 19
    endloop
  endfacet
  facet normal -1 0 0
    outer loop
      vertex 15.4 15.4 0
      vertex 15.4 5 3
      vertex 15.4 10.4 3
    endloop
  endfacet
  facet normal -1 0 0
    outer loop
      vertex 15.4 0 0
      vertex 15.4 5 3
      vertex 15.4 15.4 0
    endloop
  endfacet
  facet normal -1 0 0
    outer loop
      vertex 15.4 0 19
      vertex 15.4 5 3
      vertex 15.4 0 0
    endloop
  endfacet
  facet normal -1 0 0
    outer loop
      vertex 15.4 5 3
      vertex 15.4 0 19
      vertex 15.4 5 19
    endloop
  endfacet
  facet normal -1 -0 0
    outer loop
      vertex 15.4 15.4 19
      vertex 15.4 10.4 3
      vertex 15.4 10.4 19
    endloop
  endfacet
  facet normal 0 0 -1
    outer loop
      vertex 15.4 0 0
      vertex 25.8 15.4 0
      vertex 25.8 0 0
    endloop
  endfacet
  facet normal -0 0 -1
    outer loop
      vertex 25.8 15.4 0
      vertex 15.4 0 0
      vertex 15.4 15.4 0
    endloop
  endfacet
  facet normal 0 -1 0
    outer loop
      vertex 15.4 0 19
      vertex 23.4 0 3
      vertex 23.4 0 19
    endloop
  endfacet
  facet normal 0 -1 0
    outer loop
      vertex 15.4 0 0
      vertex 23.4 0 3
      vertex 15.4 0 19
    endloop
  endfacet
  facet normal 0 -1 0
    outer loop
      vertex 25.8 0 0
      vertex 23.4 0 3
      vertex 15.4 0 0
    endloop
  endfacet
  facet normal 0 -1 0
    outer loop
      vertex 23.4 0 3
      vertex 25.8 0 0
      vertex 25.8 0 3
    endloop
  endfacet
  facet normal 0 1 0
    outer loop
      vertex 25.8 15.4 3
      vertex 25.8 15.4 0
      vertex 23.4 15.4 3
    endloop
  endfacet
  facet normal 0 1 -0
    outer loop
      vertex 23.4 15.4 3
      vertex 15.4 15.4 19
      vertex 23.4 15.4 19
    endloop
  endfacet
  facet normal 0 1 0
    outer loop
      vertex 23.4 15.4 3
      vertex 15.4 15.4 0
      vertex 15.4 15.4 19
    endloop
  endfacet
  facet normal 0 1 0
    outer loop
      vertex 15.4 15.4 0
      vertex 23.4 15.4 3
      vertex 25.8 15.4 0
    endloop
  endfacet
  facet normal 1 -0 0
    outer loop
      vertex 23.4 0 19
      vertex 23.4 5 3
      vertex 23.4 5 19
    endloop
  endfacet
  facet normal 1 0 0
    outer loop
      vertex 23.4 5 3
      vertex 23.4 0 19
      vertex 23.4 0 3
    endloop
  endfacet
  facet normal 1 -0 0
    outer loop
      vertex 23.4 10.4 19
      vertex 23.4 15.4 3
      vertex 23.4 15.4 19
    endloop
  endfacet
  facet normal 1 0 0
    outer loop
      vertex 23.4 15.4 3
      vertex 23.4 10.4 19
      vertex 23.4 10.4 3
    endloop
  endfacet
  facet normal -0 0 1
    outer loop
      vertex 15.4 5 19
      vertex 23.4 0 19
      vertex 23.4 5 19
    endloop
  endfacet
  facet normal 0 0 1
    outer loop
      vertex 23.4 0 19
      vertex 15.4 5 19
      vertex 15.4 0 19
    endloop
  endfacet
  facet normal -0 0 1
    outer loop
      vertex 15.4 15.4 19
      vertex 23.4 10.4 19
      vertex 23.4 15.4 19
    endloop
  endfacet
  facet normal 0 0 1
    outer loop
      vertex 23.4 10.4 19
      vertex 15.4 15.4 19
      vertex 15.4 10.4 19
    endloop
  endfacet
  facet normal 0 1 -0
    outer loop
      vertex 23.4 5 3
      vertex 15.4 5 19
      vertex 23.4 5 19
    endloop
  endfacet
  facet normal 0 1 0
    outer loop
      vertex 15.4 5 19
      vertex 23.4 5 3
      vertex 15.4 5 3
    endloop
  endfacet
  facet normal 0 -1 0
    outer loop
      vertex 15.4 10.4 3
      vertex 23.4 10.4 19
      vertex 15.4 10.4 19
    endloop
  endfacet
  facet normal 0 -1 -0
    outer loop
      vertex 23.4 10.4 19
      vertex 15.4 10.4 3
      vertex 23.4 10.4 3
    endloop
  endfacet
endsolid OpenSCAD_Model
